<?xml version="1.0" encoding="UTF-8"?>
<svg version="1.1" xmlns="http://www.w3.org/2000/svg" width="500" height="500">
<path d="M0 0 C7.94532508 -0.2092179 15.88948618 -0.36878001 23.83689117 -0.46630955 C27.52799764 -0.51313859 31.21721021 -0.57656281 34.90722656 -0.67895508 C38.47357035 -0.77728785 42.03810219 -0.83066495 45.60569763 -0.85389519 C47.61798988 -0.87843958 49.62955977 -0.94861836 51.64074707 -1.01966858 C60.64469995 -1.02460191 60.64469995 -1.02460191 64.570755 1.94348145 C66.60130504 4.20298684 68.31816511 6.47425272 70 9 C70.90090287 10.14536014 71.80896896 11.28520735 72.73046875 12.4140625 C73.55144331 13.48286916 74.37043161 14.55320424 75.1875 15.625 C79.21539535 20.83499507 83.41054403 25.85944658 87.75 30.8125 C92.35778796 36.07711301 96.80958795 41.39324821 101 47 C101.72832031 47.96679688 102.45664063 48.93359375 103.20703125 49.9296875 C106.04896923 53.70951215 108.88695835 57.49200809 111.6953125 61.296875 C114.44016087 65.00457594 117.28271554 68.56020144 120.31640625 72.03515625 C122.34388399 74.40133096 124.29299492 76.82523976 126.25 79.25 C129.34632918 83.05568887 132.53827013 86.7162467 135.875 90.3125 C140.09588658 94.89815456 143.94773356 99.67029482 147.75341797 104.59692383 C151.04828557 108.84265539 154.47520612 112.94376168 158 117 C162.39268281 122.06284852 166.59760699 127.23276033 170.70605469 132.52807617 C175.01712033 138.06811955 179.47790633 143.4792841 183.96630859 148.8762207 C186.9392506 152.459964 189.85669836 156.07652673 192.70996094 159.7565918 C193.63902252 160.95399239 193.63902252 160.95399239 194.58685303 162.17558289 C195.05319153 162.77764053 195.51953003 163.37969818 196 164 C196.04681963 146.58817331 196.08203752 129.17636641 196.10362434 111.76449108 C196.11391601 103.67899147 196.1279358 95.59353107 196.15087891 87.50805664 C196.1708776 80.45684494 196.18373175 73.40566166 196.18817699 66.35442239 C196.19077344 62.62440585 196.19683177 58.89447058 196.21146011 55.16448021 C196.22769703 50.99007001 196.22797555 46.81579914 196.22705078 42.64135742 C196.23783661 40.80715492 196.23783661 40.80715492 196.24884033 38.93589783 C196.2871177 26.00007478 196.2871177 26.00007478 192 14 C190.21167814 12.70813937 190.21167814 12.70813937 188.125 11.8125 C187.44695312 11.48894531 186.76890625 11.16539063 186.0703125 10.83203125 C181.53697657 9.01014341 177.09632568 8.71691953 172.25 8.4375 C171.55261719 8.39431641 170.85523438 8.35113281 170.13671875 8.30664062 C168.42468078 8.20110404 166.71236439 8.1001009 165 8 C165 5.36 165 2.72 165 0 C191.4 0 217.8 0 245 0 C245 2.64 245 5.28 245 8 C243.64068359 8.05607422 243.64068359 8.05607422 242.25390625 8.11328125 C229.66935564 8.6187076 229.66935564 8.6187076 219.0625 14.625 C214.61746873 21.89868753 214.69886593 29.98056533 214.68115234 38.30297852 C214.67110672 39.39669266 214.6610611 40.4904068 214.65071106 41.61726379 C214.62001148 45.20447298 214.60288066 48.79160798 214.5859375 52.37890625 C214.56721523 54.87711723 214.54764103 57.37532196 214.5272522 59.8735199 C214.48126157 65.75932398 214.44381349 71.64513311 214.41057932 77.53102201 C214.36172103 86.07516503 214.29541094 94.61917613 214.23126221 103.16321564 C214.14317947 115.10876951 214.07332198 127.05430533 214 139 C242.38 139 270.76 139 300 139 C300 141.97 300 144.94 300 148 C298.97519531 148.10957031 297.95039063 148.21914062 296.89453125 148.33203125 C295.53378133 148.49156745 294.17310806 148.6517584 292.8125 148.8125 C292.13896484 148.88275391 291.46542969 148.95300781 290.77148438 149.02539062 C286.50521116 149.54566785 283.44240639 150.40076129 280 153 C276.00482662 159.42081436 275.854817 165.82862238 275.95336914 173.20507812 C275.96613386 174.86356374 275.97857533 176.52205186 275.99073792 178.18054199 C276.00261233 179.48818764 276.00261233 179.48818764 276.01472664 180.82225037 C276.05702096 186.43054566 276.04499886 192.03905969 276.04483891 197.64748383 C276.04784272 202.57069247 276.06871962 207.49263761 276.12670898 212.41552734 C276.18187519 217.18873944 276.18836654 221.95982921 276.16201591 226.73326111 C276.16078209 228.54816647 276.1772507 230.36317524 276.21193123 232.17774963 C276.46852607 246.3439698 276.46852607 246.3439698 272.87207031 250.39962769 C270.27056579 252.00245881 267.89371455 253.03892968 265 254 C263.32807642 254.72568947 261.65840322 255.45661173 259.9921875 256.1953125 C258.29135369 256.85137659 256.58543206 257.4943829 254.875 258.125 C253.96556641 258.4648291 253.05613281 258.8046582 252.11914062 259.15478516 C244.19048343 262.05222251 236.2633728 264.3005686 228 266 C226.51693359 266.31904297 226.51693359 266.31904297 225.00390625 266.64453125 C188.74333892 273.33804899 149.22467652 268.04536275 118 248 C108.83330461 241.68034231 99.42854326 233.15250227 93 224 C92.67 224.66 92.34 225.32 92 226 C65.93 226 39.86 226 13 226 C13 223.36 13 220.72 13 218 C14.0621875 217.97421875 15.124375 217.9484375 16.21875 217.921875 C28.79125999 217.58620081 28.79125999 217.58620081 39.12607288 210.84507179 C41.41937762 207.36328397 41.88384525 204.28378555 42.23283386 200.22885132 C42.34564045 199.1075078 42.34564045 199.1075078 42.46072596 197.96351087 C43.19318719 190.0914845 43.28935873 182.23823324 43.2746582 174.33837891 C43.27902096 172.7545498 43.28420921 171.17072279 43.29014587 169.5868988 C43.30336072 165.34607934 43.30413582 161.10534987 43.30158257 156.86451387 C43.30050356 153.3124024 43.30541835 149.76030847 43.310188 146.20820081 C43.32121639 137.83735451 43.32175457 129.46655314 43.31567383 121.09570312 C43.30960143 112.46515535 43.32204248 103.83476925 43.3432439 95.20424902 C43.36083066 87.77121399 43.366867 80.33823065 43.36360615 72.90517557 C43.36179285 68.47478013 43.36443679 64.04450082 43.37832069 59.6141243 C43.39085132 55.46231907 43.38900064 51.31076907 43.37590981 47.15896797 C43.37353628 45.63473361 43.37630635 44.11048148 43.38453293 42.58626747 C43.39493436 40.51006207 43.38695528 38.43472446 43.3742218 36.35855103 C43.37438954 35.19612696 43.37455729 34.03370289 43.37473011 32.83605385 C42.95739837 29.67757993 42.37535133 28.97476424 40 27 C40 26.34 40 25.68 40 25 C39.34 25 38.68 25 38 25 C37.34 24.13375 36.68 23.2675 36 22.375 C29.06910383 13.83226751 17.48421388 10.14036037 6.94921875 8.53515625 C4.63069756 8.29576156 2.32806778 8.10510464 0 8 C0 5.36 0 2.72 0 0 Z M61 53 C60.95321028 71.99370141 60.91797704 90.98739107 60.89637566 109.98113823 C60.88607769 118.80092169 60.87204572 127.62066926 60.84912109 136.44042969 C60.82914184 144.13071026 60.81627281 151.82096484 60.81182301 159.51127064 C60.8092233 163.58051277 60.80314385 167.64968055 60.78853989 171.71889877 C60.7748842 175.55526365 60.77079338 179.39152412 60.77378464 183.227911 C60.77323803 184.62986635 60.7693084 186.03182548 60.76158905 187.43375969 C60.08400475 200.37115035 60.08400475 200.37115035 64.62215996 211.93504143 C70.03886285 216.94995879 74.96458579 218.26234419 82.3125 218.125 C83.56675781 218.10695313 84.82101563 218.08890625 86.11328125 218.0703125 C87.06589844 218.04710937 88.01851562 218.02390625 89 218 C88.22076172 216.47632813 88.22076172 216.47632813 87.42578125 214.921875 C71.54205081 183.67700563 65.56898589 151.535684 76.1875 117.3125 C78.42357463 111.00896446 81.26942956 105.09093603 84.40893555 99.1887207 C86.48045047 95.31390906 86.48045047 95.31390906 87 91 C87.99 91 88.98 91 90 91 C90.33 91.99 90.66 92.98 91 94 C91.66 94 92.32 94 93 94 C93.33 94.99 93.66 95.98 94 97 C95.14450829 98.1781703 96.29478887 99.35140024 97.4765625 100.4921875 C100.51403548 103.49850691 103.2807635 106.70601579 106 110 C106.5259375 110.59425781 107.051875 111.18851563 107.59375 111.80078125 C110.85400275 116.03005356 111.18163219 119.03545575 110.640625 124.31640625 C109.03755914 142.59989404 108.31674966 162.1202224 113 180 C113.24145752 180.95688721 113.24145752 180.95688721 113.48779297 181.93310547 C119.93167284 206.89772366 132.96439844 230.2780591 155.34765625 243.890625 C175.83860374 255.93454966 197.65492259 258.17876484 220.66015625 252.55859375 C224.86190962 251.21736283 228.79092049 249.28298965 232.77124023 247.40258789 C233.81501453 246.91233501 233.81501453 246.91233501 234.87987518 246.41217804 C236.58740322 245.60986104 238.29381403 244.80516707 240 244 C240.06968807 233.72477575 240.12290652 223.44960826 240.15543652 213.17419529 C240.17105384 208.40225911 240.19221987 203.63048532 240.22631836 198.85864258 C240.25905259 194.24856419 240.27688256 189.63864143 240.28463173 185.02845573 C240.29015008 183.2746937 240.30092582 181.52093963 240.31719017 179.76724434 C240.86168669 164.93359109 240.86168669 164.93359109 234.4375 152.0625 C228.49783579 147.77766761 221.00370455 148 214 148 C213.67 174.73 213.34 201.46 213 229 C206 229 206 229 204.09472656 227.66162109 C203.61487305 227.03852051 203.13501953 226.41541992 202.640625 225.7734375 C202.08818115 225.07847168 201.5357373 224.38350586 200.96655273 223.66748047 C200.40009033 222.91096191 199.83362793 222.15444336 199.25 221.375 C198.64293213 220.60172363 198.03586426 219.82844727 197.41040039 219.03173828 C195.5869869 216.70249931 193.79197969 214.35346328 192 212 C190.15357558 209.6189106 188.2956913 207.24691037 186.4375 204.875 C186.00083008 204.31280762 185.56416016 203.75061523 185.11425781 203.17138672 C181.19933626 198.16263208 177.03695442 193.39050433 172.84448242 188.61376953 C167.74995138 182.78040645 162.99532276 176.71232467 158.24804688 170.59619141 C153.16501084 164.09523492 147.83823143 157.79138827 142.5 151.5 C122.34505831 127.74135613 122.34505831 127.74135613 113.875 114.8125 C107.95884836 105.81428133 101.23978321 98.09823014 93.58203125 90.56640625 C84.80040473 81.83792119 77.30657871 71.82702825 69.54785156 62.19775391 C68.2842771 60.62991801 67.01726734 59.06485248 65.75 57.5 C64.69039063 56.18515625 64.69039063 56.18515625 63.609375 54.84375 C63.07828125 54.2353125 62.5471875 53.626875 62 53 C61.67 53 61.34 53 61 53 Z " fill="#161616" transform="translate(99,99)"/>
<path d="M0 0 C2.31 0 4.62 0 7 0 C9.34126476 6.74279276 9.73264538 13.55101148 10.2890625 20.6328125 C10.39721283 21.94281219 10.50536316 23.25281189 10.61679077 24.60250854 C10.84450768 27.36407218 11.06766686 30.1259503 11.28710938 32.88818359 C11.5677581 36.42030019 11.85632681 39.95170993 12.1478672 43.48294258 C12.42683295 46.86601208 12.70177702 50.24940071 12.9765625 53.6328125 C13.13120468 55.52980392 13.13120468 55.52980392 13.28897095 57.46511841 C13.38261932 58.64339203 13.4762677 59.82166565 13.57275391 61.03564453 C13.65554596 62.06932159 13.73833801 63.10299866 13.82363892 64.16799927 C13.98681379 66.78825631 14.03294347 69.37562911 14 72 C10.52297684 73.15900772 9.35649645 73.47070913 6 72 C4.26484657 69.19112494 3.20134236 66.15169688 2.0625 63.0625 C1.37119424 61.31299709 0.67461482 59.56556843 -0.02734375 57.8203125 C-0.36362793 56.98145508 -0.69991211 56.14259766 -1.04638672 55.27832031 C-2.89716171 50.85655066 -5.24847177 46.91080155 -8 43 C-8.56976563 42.175 -9.13953125 41.35 -9.7265625 40.5 C-17.10111378 30.54587318 -26.5533892 23.9094791 -38.09985352 19.64575195 C-39.9453125 18.8984375 -39.9453125 18.8984375 -43 17 C-44.79006783 12.63339248 -45.42388949 9.53055747 -44 5 C-43.67 4.34 -43.34 3.68 -43 3 C-35.82546382 4.23802372 -29.11309642 6.15396037 -22.25 8.5625 C-14.29426905 11.48520524 -14.29426905 11.48520524 -6 13 C-3.23709362 11.31155721 -2.24581658 9.81287073 -1.3125 6.7265625 C-0.80466362 4.49067177 -0.36746942 2.26283798 0 0 Z " fill="#101010" transform="translate(359,132)"/>
<path d="M0 0 C1.32229189 2.64458379 1.09677194 4.67761301 1.0625 7.625 C1.05347656 8.62789062 1.04445313 9.63078125 1.03515625 10.6640625 C1.02355469 11.43492187 1.01195312 12.20578125 1 13 C0.4423999 13.06469482 -0.1152002 13.12938965 -0.68969727 13.19604492 C-22.00356254 15.74670266 -42.43768611 20.5499681 -57.18359375 37.51171875 C-58.84485871 39.64094567 -60.45286029 41.78687299 -62 44 C-65.75487443 42.49972651 -67.56107574 40.36477047 -70 37.1875 C-70.66 36.33542969 -71.32 35.48335937 -72 34.60546875 C-72.66 33.74566406 -73.32 32.88585937 -74 32 C-74.763125 31.12988281 -75.52625 30.25976562 -76.3125 29.36328125 C-76.869375 28.58339844 -77.42625 27.80351562 -78 27 C-76.91637456 23.74912368 -76.50087134 23.36196813 -73.82421875 21.51171875 C-73.16744141 21.05555176 -72.51066406 20.59938477 -71.83398438 20.12939453 C-71.12564453 19.65356934 -70.41730469 19.17774414 -69.6875 18.6875 C-68.95982422 18.19620605 -68.23214844 17.70491211 -67.48242188 17.19873047 C-46.32316518 3.13443122 -25.01462338 -0.45698441 0 0 Z " fill="#101010" transform="translate(292,132)"/>
<path d="M0 0 C11.25 0 11.25 0 18 3 C15 4 15 4 2 3 C1.67 29.4 1.34 55.8 1 83 C0.67 83 0.34 83 0 83 C0 55.61 0 28.22 0 0 Z " fill="#EFEFEF" transform="translate(312,245)"/>
<path d="M0 0 C0 0.33 0 0.66 0 1 C-1.02601318 1.06731323 -1.02601318 1.06731323 -2.07275391 1.13598633 C-25.91335207 2.64926287 -25.91335207 2.64926287 -48.4765625 10.01171875 C-51 11 -51 11 -55 11 C-55 11.66 -55 12.32 -55 13 C-57.64738916 14.4606285 -58.89448334 15 -62 15 C-62.33 15.99 -62.66 16.98 -63 18 C-64.32 17.67 -65.64 17.34 -67 17 C-47.23014241 2.38363338 -23.91387725 -0.68016424 0 0 Z " fill="#DCDCDC" transform="translate(292,132)"/>
<path d="M0 0 C7.17453618 1.23802372 13.88690358 3.15396037 20.75 5.5625 C29.95465532 9.44816774 29.95465532 9.44816774 39.375 9.0625 C39.91125 8.711875 40.4475 8.36125 41 8 C40 11 40 11 38 12 C29.25605284 11.69848458 21.22430976 8.7394223 13 6 C11.77925781 5.5978125 10.55851562 5.195625 9.30078125 4.78125 C6.53078386 3.86338104 3.76488718 2.93314942 1 2 C1 5.63 1 9.26 1 13 C2.32 13.33 3.64 13.66 5 14 C4.01 14.33 3.02 14.66 2 15 C0 14 0 14 -1.1875 10.75 C-2.11987547 6.44672858 -1.9488034 3.8976068 0 0 Z " fill="#BFBFBF" transform="translate(316,135)"/>
<path d="M0 0 C0.33 0 0.66 0 1 0 C2.55950637 13.17604471 3.77321249 26.36812288 4.85986328 39.59106445 C5.12836013 42.8533259 5.40183512 46.11514521 5.67578125 49.37695312 C5.84924986 51.46612165 6.02243758 53.55531352 6.1953125 55.64453125 C6.27653351 56.61219925 6.35775452 57.57986725 6.44143677 58.57685852 C6.51506439 59.47937851 6.58869202 60.3818985 6.66455078 61.31176758 C6.76209152 62.49274773 6.76209152 62.49274773 6.86160278 63.69758606 C7.00823571 66.13701158 7.02320989 68.55676176 7 71 C3.71023192 72.09658936 2.28696233 71.79953138 -1 71 C-0.505 70.01 -0.505 70.01 0 69 C1.65 69.33 3.3 69.66 5 70 C4.93735962 69.24102417 4.87471924 68.48204834 4.81018066 67.70007324 C4.21828414 60.52134822 3.6295316 53.34237536 3.04424286 46.16310883 C2.7432855 42.47285377 2.44114527 38.78270378 2.13623047 35.09277344 C1.84160749 31.52684525 1.55018486 27.96066824 1.26091003 24.39430237 C1.09690397 22.38243969 0.92964831 20.37084277 0.7623291 18.35925293 C0.26682452 12.21798705 -0.13571568 6.161492 0 0 Z " fill="#CFCFCF" transform="translate(366,133)"/>
<path d="M0 0 C0.33 0 0.66 0 1 0 C1 3.63 1 7.26 1 11 C-2.35416667 11.47916667 -5.70833333 11.95833333 -9.0625 12.4375 C-10.00544922 12.57220703 -10.94839844 12.70691406 -11.91992188 12.84570312 C-16.94661458 13.56380208 -21.97330729 14.28190104 -27 15 C-25 12 -25 12 -22.3828125 11.26953125 C-14.86615268 10.21503581 -7.5886248 9.75388244 0 10 C0 6.7 0 3.4 0 0 Z " fill="#999999" transform="translate(292,134)"/>
<path d="M0 0 C-1.98 0.33 -3.96 0.66 -6 1 C-6 1.66 -6 2.32 -6 3 C-8.64738916 4.4606285 -9.89448334 5 -13 5 C-13.33 5.99 -13.66 6.98 -14 8 C-15.32 7.67 -16.64 7.34 -18 7 C-16.23174858 5.85018626 -14.46030479 4.70528078 -12.6875 3.5625 C-11.70136719 2.92441406 -10.71523437 2.28632813 -9.69921875 1.62890625 C-6.00485019 -0.60054627 -4.08274307 -1.2670582 0 0 Z " fill="#ACACAC" transform="translate(243,142)"/>
<path d="M0 0 C0.66 0.33 1.32 0.66 2 1 C1.484375 1.5775 0.96875 2.155 0.4375 2.75 C-1.21233121 4.84602318 -1.21233121 4.84602318 -0.875 7.0625 C0.0993005 9.21987969 1.22375457 10.45543876 3 12 C2.67 12.66 2.34 13.32 2 14 C0.80040625 12.74057614 -0.38439443 11.46704714 -1.5625 10.1875 C-2.55443359 9.12595703 -2.55443359 9.12595703 -3.56640625 8.04296875 C-4.03949219 7.36878906 -4.51257813 6.69460937 -5 6 C-3.86695008 2.60085025 -2.87481525 1.94745549 0 0 Z " fill="#A4A4A4" transform="translate(219,153)"/>
<path d="M0 0 C0.66 0 1.32 0 2 0 C2 3.63 2 7.26 2 11 C3.32 11.33 4.64 11.66 6 12 C5.01 12.33 4.02 12.66 3 13 C1 12 1 12 -0.1875 8.75 C-0.95061988 5.22790825 -1.0252106 3.38319499 0 0 Z " fill="#9F9F9F" transform="translate(315,137)"/>
<path d="M0 0 C6.80203375 -0.37634203 11.75690073 0.22528921 18 3 C14.30581799 4.231394 11.7943739 3.64432764 8 3 C8 2.34 8 1.68 8 1 C5.36 1 2.72 1 0 1 C0 0.67 0 0.34 0 0 Z " fill="#959595" transform="translate(312,245)"/>
<path d="M0 0 C0.66 0.33 1.32 0.66 2 1 C2 2.65 2 4.3 2 6 C-1.28976808 7.09658936 -2.71303767 6.79953138 -6 6 C-5.67 5.34 -5.34 4.68 -5 4 C-3.35 4.33 -1.7 4.66 0 5 C0 3.35 0 1.7 0 0 Z " fill="#AEAEAE" transform="translate(371,198)"/>
</svg>
