<?xml version="1.0" standalone="no"?>
<!DOCTYPE svg PUBLIC "-//W3C//DTD SVG 20010904//EN"
 "http://www.w3.org/TR/2001/REC-SVG-20010904/DTD/svg10.dtd">
<svg version="1.0" xmlns="http://www.w3.org/2000/svg"
 width="300.000000pt" height="300.000000pt" viewBox="0 0 300.000000 300.000000"
 preserveAspectRatio="xMidYMid meet">
<metadata>
Created by potrace 1.10, written by Peter Selinger 2001-2011
</metadata>
<g transform="translate(0.000000,300.000000) scale(0.100000,-0.100000)"
fill="#000000" stroke="none">
<path d="M600 2380 c0 -16 7 -20 36 -20 66 0 115 -22 176 -79 l59 -54 -3 -526
c-2 -412 -6 -531 -16 -549 -22 -38 -71 -62 -129 -62 -40 0 -53 -4 -53 -15 0
-13 33 -15 235 -15 202 0 235 2 235 15 0 11 -12 15 -47 15 -66 0 -115 26 -130
70 -8 25 -12 167 -12 498 l-1 463 83 -102 c45 -57 112 -136 149 -175 37 -40
78 -90 91 -111 21 -33 341 -430 508 -631 34 -39 67 -72 75 -72 12 0 14 42 14
251 l0 252 51 -7 c28 -4 61 -14 74 -22 44 -29 49 -55 53 -317 l4 -247 -53 -24
c-84 -37 -156 -49 -260 -44 -78 4 -105 10 -159 35 -148 69 -242 188 -303 383
-17 53 -21 95 -22 237 -2 169 -3 174 -28 211 -15 21 -44 55 -65 75 l-39 38
-31 -68 c-98 -216 -90 -448 24 -645 55 -95 175 -208 265 -251 233 -111 571
-107 802 9 l47 24 0 218 c0 331 14 378 114 389 30 4 46 10 46 19 0 12 -47 14
-260 14 l-260 0 0 358 c0 263 4 363 13 381 22 43 58 62 120 62 49 1 57 4 57
20 0 18 -11 19 -235 19 -225 0 -235 -1 -235 -19 0 -17 7 -20 54 -20 68 0 110
-21 127 -63 14 -39 27 -908 12 -908 -4 0 -13 8 -19 18 -15 22 -366 455 -413
508 -20 22 -76 92 -126 155 -49 62 -129 162 -178 222 l-88 107 -180 0 c-172 0
-179 -1 -179 -20z m333 -29 c22 -9 110 -112 338 -398 41 -51 142 -174 224
-274 83 -100 161 -196 174 -213 50 -64 86 -96 107 -96 13 0 26 5 29 10 4 6 11
8 16 5 12 -8 12 -242 0 -250 -5 -3 -30 18 -55 47 -87 101 -428 523 -459 568
-16 25 -60 78 -96 119 -36 41 -100 115 -142 166 -42 51 -85 95 -94 99 -10 3
-28 0 -41 -9 l-24 -15 0 53 c0 56 -20 98 -77 158 -18 20 -21 28 -11 32 22 9
85 8 111 -2z m927 0 c0 -5 -7 -26 -16 -47 l-16 -39 -19 38 c-11 21 -17 42 -14
47 8 12 65 13 65 1z m-677 -621 l34 -40 -5 -132 c-3 -109 0 -150 17 -228 38
-175 126 -318 261 -424 l35 -27 -30 6 c-106 22 -245 125 -320 235 -76 112
-108 216 -108 355 0 74 5 131 17 175 20 71 42 120 55 120 5 0 25 -18 44 -40z
m1047 -214 c0 -2 -8 -21 -17 -42 -14 -32 -18 -85 -22 -284 l-6 -245 -45 -22
c-25 -12 -56 -25 -70 -28 l-24 -8 19 29 c19 27 20 47 20 274 0 214 -2 249 -18
277 -9 18 -17 37 -17 43 0 6 34 10 90 10 50 0 90 -2 90 -4z m-1306 -360 c3
-13 9 -31 12 -40 5 -13 -1 -16 -30 -16 -20 0 -36 2 -36 5 0 11 34 75 41 75 4
0 10 -11 13 -24z"/>
<path d="M1580 2185 c-36 -7 -89 -23 -119 -34 -52 -21 -161 -87 -161 -98 0 -3
16 -27 35 -53 l35 -48 52 54 c63 66 148 110 244 124 38 5 72 10 77 10 4 0 7
14 7 30 0 30 -1 30 -52 29 -29 0 -82 -7 -118 -14z m-165 -125 c-29 -30 -55
-39 -55 -20 0 11 58 50 74 50 6 0 -3 -13 -19 -30z"/>
<path d="M2156 2165 c-11 -56 -30 -59 -147 -20 -57 19 -104 35 -106 35 -2 0
-3 -15 -3 -32 0 -30 5 -35 55 -57 78 -33 152 -110 198 -203 20 -42 37 -84 37
-92 0 -10 9 -16 21 -16 18 0 20 4 16 33 -4 17 -12 112 -18 210 -11 155 -15
177 -30 177 -11 0 -19 -11 -23 -35z m8 -91 c9 -22 7 -104 -1 -104 -8 0 -93 95
-93 104 0 3 17 7 38 9 20 2 40 4 43 5 4 1 10 -5 13 -14z"/>
</g>
</svg>
